<?xml version="1.0" encoding="UTF-8"?>
<svg xmlns="http://www.w3.org/2000/svg" xmlns:xlink="http://www.w3.org/1999/xlink" width="80pt" height="80pt" viewBox="0 0 80 80" version="1.1">
<g id="surface1">
<path style=" stroke:none;fill-rule:nonzero;fill:rgb(0%,0%,0%);fill-opacity:1;" d="M 36.875 0.09375 C 27.25 1 18.90625 4.75 12.15625 11.21875 C 5.671875 17.4375 1.53125 25.625 0.234375 34.75 C -0.109375 37.1875 -0.078125 43.140625 0.296875 45.71875 C 2.5 60.703125 12.953125 73.171875 27.28125 77.9375 C 31.65625 79.390625 34.921875 79.890625 40 79.890625 C 44.09375 79.890625 45.5625 79.75 49 78.984375 C 62.484375 75.953125 73.6875 65.78125 78.046875 52.59375 C 79.453125 48.328125 80 44.859375 80 40 C 80 37.96875 79.90625 36.046875 79.765625 34.890625 C 78.375 24.203125 72.796875 14.625 64.1875 8.125 C 58.703125 3.96875 52.53125 1.40625 45.546875 0.375 C 44.03125 0.15625 38.28125 -0.03125 36.875 0.09375 Z M 45 1.8125 C 46.9375 2.0625 49.703125 2.625 49.875 2.78125 C 49.953125 2.859375 30.390625 14.359375 27.5625 15.90625 L 27.1875 16.109375 L 27.1875 3.609375 L 28.484375 3.21875 C 33.90625 1.5625 39.46875 1.09375 45 1.8125 Z M 53.671875 3.96875 C 63.875 7.765625 72.34375 16.234375 76.140625 26.421875 C 76.6875 27.859375 77.34375 30.015625 77.5625 31.015625 L 77.671875 31.484375 L 71.359375 35.203125 C 67.890625 37.234375 64.953125 38.90625 64.859375 38.90625 C 64.75 38.90625 56.734375 34.296875 47.0625 28.65625 C 37.375 23.015625 29.15625 18.21875 28.796875 18.015625 C 28.421875 17.796875 28.09375 17.5625 28.046875 17.5 C 28 17.4375 30.96875 15.625 34.65625 13.5 C 38.328125 11.359375 43.71875 8.234375 46.640625 6.53125 C 49.5625 4.828125 52.03125 3.4375 52.109375 3.4375 C 52.203125 3.4375 52.90625 3.671875 53.671875 3.96875 Z M 25.578125 16.046875 C 25.53125 16.078125 15.671875 10.40625 15.5 10.234375 C 15.40625 10.140625 18.65625 7.84375 20.234375 6.890625 C 21.15625 6.34375 22.71875 5.515625 23.71875 5.0625 L 25.546875 4.21875 L 25.59375 10.109375 C 25.609375 13.34375 25.609375 16.015625 25.578125 16.046875 Z M 20.4375 14.828125 L 25.625 17.859375 L 25.625 61.078125 L 23.328125 59.734375 C 18.34375 56.84375 13.125 53.8125 7.890625 50.78125 C 4.890625 49.046875 2.328125 47.53125 2.21875 47.421875 C 1.75 47 1.5 44.28125 1.5 39.921875 C 1.5 36.046875 1.53125 35.515625 1.921875 33.4375 C 3.375 25.390625 7.03125 18.40625 12.765625 12.6875 L 14.21875 11.21875 L 14.734375 11.515625 C 15 11.6875 17.578125 13.171875 20.4375 14.828125 Z M 40.546875 26.5625 C 46.484375 30.015625 54.015625 34.40625 57.296875 36.296875 C 60.578125 38.203125 63.265625 39.8125 63.28125 39.859375 C 63.28125 39.90625 60.09375 41.8125 56.21875 44.09375 C 52.328125 46.390625 44.234375 51.140625 38.21875 54.671875 C 32.21875 58.203125 27.265625 61.0625 27.203125 61.03125 C 27.15625 61 27.125 51.46875 27.15625 39.859375 L 27.1875 18.75 L 28.484375 19.515625 C 29.1875 19.9375 34.625 23.109375 40.546875 26.5625 Z M 78.25 34.46875 C 78.546875 36.390625 78.671875 41.546875 78.453125 43.609375 C 78.203125 46.03125 78.109375 46.5625 77.9375 46.5625 C 77.75 46.5625 66.40625 39.953125 66.40625 39.84375 C 66.40625 39.796875 67.265625 39.265625 68.3125 38.671875 C 69.359375 38.0625 71.90625 36.578125 73.984375 35.359375 C 76.046875 34.140625 77.8125 33.15625 77.890625 33.1875 C 77.984375 33.203125 78.140625 33.78125 78.25 34.46875 Z M 64.53125 55.453125 L 64.53125 69.8125 L 63.15625 70.828125 C 56.15625 75.96875 48.546875 78.484375 40 78.484375 C 35.890625 78.484375 32.3125 77.953125 28.5 76.796875 L 27.1875 76.390625 L 27.1875 62.859375 L 31.765625 60.1875 C 34.265625 58.703125 42.578125 53.8125 50.234375 49.3125 C 57.890625 44.796875 64.234375 41.109375 64.34375 41.109375 C 64.484375 41.09375 64.53125 44.0625 64.53125 55.453125 Z M 72.1875 45 C 75.140625 46.71875 77.609375 48.171875 77.640625 48.21875 C 77.765625 48.34375 77.171875 50.640625 76.53125 52.46875 C 74.796875 57.546875 72.171875 61.9375 68.375 66.140625 C 67.546875 67.046875 66.671875 67.9375 66.40625 68.125 L 65.9375 68.453125 L 65.9375 41.390625 L 66.375 41.625 C 66.609375 41.75 69.21875 43.265625 72.1875 45 Z M 13.828125 55.9375 C 19.9375 59.46875 24.9375 62.390625 24.96875 62.40625 C 24.984375 62.4375 15.296875 68.1875 14.328125 68.703125 C 14.15625 68.796875 11.25 65.84375 10.0625 64.375 C 7.078125 60.6875 4.734375 56.4375 3.296875 52.0625 C 2.59375 49.921875 2.4375 49.328125 2.609375 49.421875 C 2.671875 49.46875 7.734375 52.390625 13.828125 55.9375 Z M 25.625 69.84375 C 25.625 75.421875 25.609375 75.765625 25.359375 75.671875 C 24.46875 75.375 20.8125 73.484375 19.609375 72.734375 C 18.15625 71.828125 15.421875 69.84375 15.5 69.765625 C 15.640625 69.625 25.40625 63.90625 25.515625 63.90625 C 25.578125 63.90625 25.625 66.578125 25.625 69.84375 Z M 25.625 69.84375 "/>
</g>
</svg>
