<?xml version="1.0" encoding="utf-8"?>
<!-- Generator: Adobe Illustrator 16.0.0, SVG Export Plug-In . SVG Version: 6.00 Build 0)  -->
<!DOCTYPE svg PUBLIC "-//W3C//DTD SVG 1.1//EN" "http://www.w3.org/Graphics/SVG/1.1/DTD/svg11.dtd">
<svg version="1.1" id="Default" xmlns="http://www.w3.org/2000/svg" xmlns:xlink="http://www.w3.org/1999/xlink" x="0px" y="0px"
	 width="200px" height="200px" viewBox="0 0 200 200" enable-background="new 0 0 200 200" xml:space="preserve">
<g>
	<path d="M182.76,133.16c0,7.35,0,14.71,0,22.07c-7.35,0-14.71,0-22.069,0c0,11.029,0,22.069,0,33.1c-7.351,0-14.71,0-22.07,0
		c0-11.03,0-22.07,0-33.1c-29.42,0-58.85,0-88.28,0c-11.03,0-22.07,0-33.1,0c0-7.99,0-15.98,0-23.961
		c19.91-19.92,39.83-39.839,59.74-59.75c5.21-5.21,7.48-12.68,6.04-19.91c-1.43-7.23-6.39-13.27-13.2-16.09s-14.57-2.05-20.7,2.04
		c-6.13,4.1-9.81,10.98-9.81,18.35c-7.36,0-14.71,0-22.07,0c0-14.74,7.36-28.51,19.62-36.7c12.25-8.19,27.79-9.72,41.41-4.08
		c13.62,5.64,23.52,17.71,26.4,32.17s-1.66,29.4-12.08,39.82c-15.34,15.35-30.69,30.689-46.03,46.04c8.62,0,17.23,0,25.85,0
		c29.43-29.43,58.859-58.86,88.28-88.28c0,29.42,0,58.851,0,88.28C168.05,133.16,175.41,133.16,182.76,133.16z M138.62,133.16V95.68
		l-37.48,37.48H138.62z"/>
</g>
</svg>
