<?xml version="1.0" encoding="utf-8"?>
<!-- Generator: Adobe Illustrator 16.0.0, SVG Export Plug-In . SVG Version: 6.00 Build 0)  -->
<!DOCTYPE svg PUBLIC "-//W3C//DTD SVG 1.1//EN" "http://www.w3.org/Graphics/SVG/1.1/DTD/svg11.dtd">
<svg version="1.1" xmlns="http://www.w3.org/2000/svg" xmlns:xlink="http://www.w3.org/1999/xlink" x="0px" y="0px" width="100px"
	 height="100px" viewBox="0 0 100 100" enable-background="new 0 0 100 100" xml:space="preserve">
<g id="Layer_1">
	<g>
		<path fill="#010101" d="M47.317,0c-7.7,0-14,6.3-14,14v38.666c0,7.7,6.3,14,14,14h38.667c7.7,0,14-6.3,14-14V14
			c0-7.7-6.3-14-14-14H47.317z M49.65,22.558c-3.438,0-6.225-2.787-6.225-6.225s2.787-6.225,6.225-6.225
			c3.438,0,6.225,2.787,6.225,6.225S53.088,22.558,49.65,22.558z M66.65,39.558c-3.438,0-6.225-2.787-6.225-6.225
			s2.787-6.225,6.225-6.225s6.225,2.787,6.225,6.225S70.088,39.558,66.65,39.558z M83.65,56.558c-3.438,0-6.225-2.787-6.225-6.225
			s2.787-6.225,6.225-6.225s6.225,2.787,6.225,6.225S87.088,56.558,83.65,56.558z"/>
	</g>
	<path fill="#010101" d="M47.317,70.666c-9.925,0-18-8.074-18-18V33.333H13.983c-7.7,0-14,6.3-14,14V86c0,7.7,6.3,14,14,14H52.65
		c7.699,0,14-6.3,14-14V70.666H47.317z M16.317,89.891c-3.438,0-6.225-2.787-6.225-6.225s2.787-6.225,6.225-6.225
		s6.225,2.787,6.225,6.225S19.754,89.891,16.317,89.891z M16.317,55.891c-3.438,0-6.225-2.787-6.225-6.224
		c0-3.438,2.787-6.225,6.225-6.225s6.225,2.787,6.225,6.225C22.542,53.104,19.754,55.891,16.317,55.891z M50.317,89.891
		c-3.438,0-6.225-2.787-6.225-6.225s2.787-6.225,6.225-6.225c3.437,0,6.224,2.787,6.224,6.225S53.754,89.891,50.317,89.891z"/>
</g>
<g id="Default">
</g>
</svg>
