<?xml version="1.0" encoding="utf-8"?>
<!-- Generator: Adobe Illustrator 16.0.0, SVG Export Plug-In . SVG Version: 6.00 Build 0)  -->
<!DOCTYPE svg PUBLIC "-//W3C//DTD SVG 1.1//EN" "http://www.w3.org/Graphics/SVG/1.1/DTD/svg11.dtd">
<svg version="1.1" xmlns="http://www.w3.org/2000/svg" xmlns:xlink="http://www.w3.org/1999/xlink" x="0px" y="0px" width="100px"
	 height="100px" viewBox="0 0 100 100" enable-background="new 0 0 100 100" xml:space="preserve">
<g id="Layer_1">
</g>
<g id="Default">
	<g>
		<path fill="#010101" d="M96.991,47.547l-8.452-6.191V24.276h-10v9.755L49.979,13.11L2.966,47.547
			c-2.228,1.632-2.711,4.761-1.079,6.988c1.632,2.229,4.761,2.711,6.988,1.08l41.104-30.109l41.104,30.109
			c0.891,0.652,1.925,0.967,2.951,0.967c1.539-0.001,3.058-0.709,4.037-2.047C99.702,52.309,99.219,49.179,96.991,47.547z"/>
		<polygon points="49.979,30.69 11.261,59.051 11.261,100 41.106,100 41.106,75.316 58.852,75.316 58.852,100 88.696,100 
			88.696,59.051 		"/>
	</g>
</g>
</svg>
