<?xml version="1.0" encoding="utf-8"?>
<!-- Generator: Adobe Illustrator 16.0.0, SVG Export Plug-In . SVG Version: 6.00 Build 0)  -->
<!DOCTYPE svg PUBLIC "-//W3C//DTD SVG 1.1//EN" "http://www.w3.org/Graphics/SVG/1.1/DTD/svg11.dtd">
<svg version="1.1" id="Layer_1" xmlns="http://www.w3.org/2000/svg" xmlns:xlink="http://www.w3.org/1999/xlink" x="0px" y="0px"
	 width="100px" height="100px" viewBox="0 0 100 100" enable-background="new 0 0 100 100" xml:space="preserve">
<g id="Default">
</g>
<g>
	<path d="M57.74,12.496H8.573c-1.933,0-3.5-1.567-3.5-3.5s1.567-3.5,3.5-3.5H57.74c1.933,0,3.5,1.567,3.5,3.5
		S59.673,12.496,57.74,12.496z"/>
	<path d="M75.162,100.025c-6.284,0-11.397-5.113-11.397-11.397c0-6.283,5.113-11.396,11.397-11.396S86.56,82.345,86.56,88.628
		C86.56,94.912,81.446,100.025,75.162,100.025z"/>
	<path d="M33.239,100c-8.431,0-15.287-6.858-15.287-15.288c0-8.431,6.856-15.289,15.287-15.289c8.432,0,15.289,6.858,15.289,15.289
		C48.528,93.142,41.671,100,33.239,100z"/>
	<path d="M91.137,72.372V49.314V30.127c0-2.061-1.671-3.732-3.731-3.732c-2.062,0-3.732,1.671-3.732,3.732v19.188H58.015v23.045
		h-2.839V14.991H11.303v57.417c-2.522,0.248-4.518,2.366-4.518,4.951v6.269c0,2.75,2.25,5,5,5h4.189
		c-0.286-1.262-0.451-2.569-0.451-3.916c0-9.769,7.947-17.716,17.716-17.716c9.77,0,17.717,7.947,17.717,17.716
		c0,1.347-0.165,2.654-0.451,3.916h10.858c0-7.609,6.19-13.799,13.799-13.799s13.799,6.189,13.799,13.799h2.052c2.75,0,5-2.25,5-5
		v-6.269C96.013,74.651,93.829,72.44,91.137,72.372z M42.607,44.647H23.872V25.913h18.735V44.647z"/>
</g>
</svg>
