<?xml version="1.0" encoding="utf-8"?>
<!-- Generator: Adobe Illustrator 16.0.0, SVG Export Plug-In . SVG Version: 6.00 Build 0)  -->
<!DOCTYPE svg PUBLIC "-//W3C//DTD SVG 1.1//EN" "http://www.w3.org/Graphics/SVG/1.1/DTD/svg11.dtd">
<svg version="1.1" id="Layer_1" xmlns="http://www.w3.org/2000/svg" xmlns:xlink="http://www.w3.org/1999/xlink" x="0px" y="0px"
	 width="100px" height="100px" viewBox="0 0 100 100" enable-background="new 0 0 100 100" xml:space="preserve">
<g id="Default">
</g>
<g>
	<path d="M86.532,61.637H70.689h-6.344H52.609h-6.088H34.785h-6.343H13.467c-1.682,0-3.045,1.363-3.045,3.045
		c0,1.683,1.363,3.045,3.045,3.045h13.199l-9.39,32.199h6.343l9.39-32.199h13.513v18.847h6.089V67.727h13.511l9.392,32.199h6.342
		l-9.39-32.199h14.067c1.683,0,3.046-1.363,3.046-3.045S88.215,61.637,86.532,61.637z"/>
	<polygon points="56.932,14.456 52.738,0.074 49.568,0.074 49.566,0.075 49.564,0.074 46.394,0.074 42.201,14.456 	"/>
	<path d="M15.522,17.838v40.417h68.076V17.838H15.522z M26.276,49.986l8.492-10.631c0,0,1.731-2.352,4.184,0
		c2.454,2.351,5.726,5.725,5.726,5.725s2.248,1.533,3.782,0.102c1.533-1.431,8.485-10.427,8.485-10.427s2.146-2.556,4.293,0
		c2.146,2.556,10.836,15.231,10.836,15.231H26.276z"/>
</g>
</svg>
