<?xml version="1.0" encoding="utf-8"?>
<!-- Generator: Adobe Illustrator 16.0.0, SVG Export Plug-In . SVG Version: 6.00 Build 0)  -->
<!DOCTYPE svg PUBLIC "-//W3C//DTD SVG 1.1//EN" "http://www.w3.org/Graphics/SVG/1.1/DTD/svg11.dtd">
<svg version="1.1" id="Layer_1" xmlns="http://www.w3.org/2000/svg" xmlns:xlink="http://www.w3.org/1999/xlink" x="0px" y="0px"
	 width="100px" height="100px" viewBox="0 0 100 100" enable-background="new 0 0 100 100" xml:space="preserve">
<g>
	<path d="M98,58.025c1.1,0,2-0.9,2-2v-12c0-1.1-0.9-2-2-2h-8.295c-1.1,0-2.27-0.859-2.599-1.908l-3.856-9.324
		c-0.516-0.972-0.301-2.403,0.477-3.181l5.871-5.872c0.777-0.778,0.777-2.05,0-2.828l-8.484-8.485c-0.777-0.778-2.051-0.778-2.828,0
		l-5.872,5.872c-0.777,0.778-2.209,0.992-3.181,0.477l-9.324-3.858C58.858,12.588,58,11.419,58,10.319V2.025c0-1.1-0.9-2-2-2H44
		c-1.1,0-2,0.9-2,2v8.293c0,1.1-0.859,2.269-1.909,2.598l-9.326,3.857c-0.972,0.516-2.403,0.301-3.181-0.477l-5.87-5.87
		c-0.778-0.778-2.05-0.778-2.828,0l-8.485,8.485c-0.778,0.778-0.778,2.05,0,2.828l5.87,5.87c0.778,0.778,0.992,2.209,0.477,3.181
		l-3.859,9.326c-0.329,1.049-1.498,1.908-2.598,1.908H2c-1.1,0-2,0.9-2,2v12c0,1.1,0.9,2,2,2h8.291c1.1,0,2.269,0.858,2.598,1.908
		l3.859,9.326c0.516,0.972,0.301,2.403-0.477,3.181l-5.87,5.87c-0.778,0.777-0.778,2.051,0,2.828l8.485,8.484
		c0.778,0.777,2.05,0.777,2.828,0l5.87-5.869c0.778-0.777,2.209-0.992,3.181-0.477l9.326,3.856C41.141,87.463,42,88.633,42,89.732
		v8.293c0,1.1,0.9,2,2,2h12c1.1,0,2-0.9,2-2v-8.293c0-1.1,0.858-2.27,1.908-2.599l9.324-3.858c0.972-0.516,2.403-0.301,3.181,0.477
		l5.872,5.871c0.777,0.777,2.051,0.777,2.828,0l8.484-8.484c0.777-0.777,0.777-2.051,0-2.828l-5.871-5.872
		c-0.777-0.777-0.992-2.209-0.477-3.181l3.856-9.324c0.329-1.05,1.499-1.908,2.599-1.908H98z M50,69.75
		c-10.894,0-19.725-8.831-19.725-19.725S39.106,30.301,50,30.301s19.725,8.831,19.725,19.725S60.894,69.75,50,69.75z"/>
</g>
</svg>
