<?xml version="1.0" encoding="utf-8"?>
<!-- Generator: Adobe Illustrator 16.0.0, SVG Export Plug-In . SVG Version: 6.00 Build 0)  -->
<!DOCTYPE svg PUBLIC "-//W3C//DTD SVG 1.1//EN" "http://www.w3.org/Graphics/SVG/1.1/DTD/svg11.dtd">
<svg version="1.1" xmlns="http://www.w3.org/2000/svg" xmlns:xlink="http://www.w3.org/1999/xlink" x="0px" y="0px" width="100px"
	 height="100px" viewBox="0 0 100 100" enable-background="new 0 0 100 100" xml:space="preserve">
<g id="Layer_1">
	<g>
		<path d="M84.826,33.183c-4.092,0-7.406,3.315-7.406,7.407c0,0.174,0.014,0.344,0.025,0.514
			C77.17,56.271,64.798,68.483,49.566,68.483c-15.405,0-27.893-12.488-27.893-27.894c0-4.091-3.316-7.407-7.406-7.407
			c-4.091,0-7.407,3.315-7.407,7.407c0,23.575,19.111,42.687,42.686,42.687c23.575,0,42.686-19.111,42.686-42.687
			C92.231,36.499,88.916,33.183,84.826,33.183z"/>
		<path d="M65.508,6.414H33.584c-4.586,0-8.338,3.752-8.338,8.338v9.628v16.272c0,13.421,10.879,24.3,24.299,24.3
			c13.421,0,24.3-10.879,24.3-24.3V24.38v-9.628C73.846,10.166,70.094,6.414,65.508,6.414z"/>
		<path d="M67.186,82.206L77.459,100h8.197l-9.027-23.243C73.732,78.934,70.564,80.771,67.186,82.206z"/>
		<path d="M31.906,82.206L21.632,100h-8.197l9.027-23.243C25.36,78.934,28.527,80.771,31.906,82.206z"/>
	</g>
</g>
<g id="Default">
</g>
</svg>
