<?xml version="1.0" encoding="utf-8"?>
<!-- Generator: Adobe Illustrator 16.0.0, SVG Export Plug-In . SVG Version: 6.00 Build 0)  -->
<!DOCTYPE svg PUBLIC "-//W3C//DTD SVG 1.1//EN" "http://www.w3.org/Graphics/SVG/1.1/DTD/svg11.dtd">
<svg version="1.1" id="Layer_1" xmlns="http://www.w3.org/2000/svg" xmlns:xlink="http://www.w3.org/1999/xlink" x="0px" y="0px"
	 width="100px" height="100px" viewBox="0 0 100 100" enable-background="new 0 0 100 100" xml:space="preserve">
<g id="Default">
</g>
<path d="M75.02,42.352c-4.633-5.295-6.485-9.001-3.441-14.296c3.045-5.295,3.574-6.155,4.435-8.803s0.86-5.229,0.132-7.612
	c-0.728-2.382-2.912-2.515-3.904-0.86c-0.993,1.655-2.714,5.295-7.082,5.163c-4.368-0.132-8.009-3.86-8.538-8.009
	c-0.27-2.106-0.425-5.303-0.511-7.942H43.117c0,0-11.55-0.199-16.944,6.619c-6.222,7.81-0.926,16.415,1.061,20.385
	c1.985,3.972,3.44,9.134,0,12.443c-3.442,3.31-14.297,13.9-14.959,27.931s10.854,25.945,21.048,29.784
	c10.192,3.839,27.269,4.104,36.933-1.059c9.663-5.163,18.003-14.297,17.473-27.534C87.198,55.325,79.653,47.647,75.02,42.352z
	 M42.713,21.437c0-1.165,0.952-2.118,2.117-2.118h11.782c1.164,0,2.117,0.953,2.117,2.118v4.236c0,1.164-0.953,2.118-2.117,2.118
	H44.83c-1.165,0-2.117-0.954-2.117-2.118V21.437z M42.713,45c0-1.165,0.952-2.118,2.117-2.118h11.782
	c1.164,0,2.117,0.953,2.117,2.118v4.236c0,1.165-0.953,2.118-2.117,2.118H44.83c-1.165,0-2.117-0.954-2.117-2.118V45z
	 M59.399,67.504H42.041c-1.165,0-2.118-0.834-2.118-1.854s0.953-1.854,2.118-1.854h17.358c1.164,0,2.118,0.834,2.118,1.854
	S60.563,67.504,59.399,67.504z M71.049,85.903c-1.754,0-3.178-1.422-3.178-3.177c0-1.756,1.424-3.178,3.178-3.178
	s3.177,1.422,3.177,3.178C74.226,84.481,72.803,85.903,71.049,85.903z M77.402,75.578c-1.754,0-3.177-1.422-3.177-3.177
	s1.423-3.177,3.177-3.177c1.755,0,3.177,1.422,3.177,3.177S79.157,75.578,77.402,75.578z"/>
</svg>
