<?xml version="1.0" encoding="utf-8"?>
<!-- Generator: Adobe Illustrator 16.0.0, SVG Export Plug-In . SVG Version: 6.00 Build 0)  -->
<!DOCTYPE svg PUBLIC "-//W3C//DTD SVG 1.1//EN" "http://www.w3.org/Graphics/SVG/1.1/DTD/svg11.dtd">
<svg version="1.1" id="Layer_1" xmlns="http://www.w3.org/2000/svg" xmlns:xlink="http://www.w3.org/1999/xlink" x="0px" y="0px"
	 width="100px" height="100px" viewBox="0 0 100 100" enable-background="new 0 0 100 100" xml:space="preserve">
<g id="Default">
</g>
<g>
	<path d="M73.096,44.276h-9.319c-10.436,0-2.903-11.287-2.903-11.287l-0.013-0.001c3.021-3.485,4.916-8.397,4.916-13.854
		C65.776,8.567,58.712,0,50,0S34.224,8.567,34.224,19.134c0,5.457,1.895,10.369,4.916,13.854l-0.013,0.001
		c0,0,7.532,11.287-2.903,11.287h-9.319c-5.322,0-8.45,4.179-6.952,9.285l3.842,13.093c1.499,5.106,7.08,9.285,12.402,9.285h4.127
		c5.322,0,14.031,0,19.354,0h4.127c5.322,0,10.903-4.179,12.402-9.285l3.842-13.093C81.546,48.455,78.418,44.276,73.096,44.276z"/>
	<path d="M74.51,93.021h-7.735c0,0-11.101-0.078-11.101-13.797c-2.245,0-5.674,0-5.674,0s-3.429,0-5.674,0
		c0,13.719-11.101,13.797-11.101,13.797h-7.734c-1.927,0-3.489,1.563-3.489,3.489S23.564,100,25.491,100H74.51
		c1.927,0,3.489-1.563,3.489-3.489S76.437,93.021,74.51,93.021z"/>
</g>
</svg>
