<?xml version="1.0" encoding="utf-8"?>
<!-- Generator: Adobe Illustrator 16.0.0, SVG Export Plug-In . SVG Version: 6.00 Build 0)  -->
<!DOCTYPE svg PUBLIC "-//W3C//DTD SVG 1.1//EN" "http://www.w3.org/Graphics/SVG/1.1/DTD/svg11.dtd">
<svg version="1.1" xmlns="http://www.w3.org/2000/svg" xmlns:xlink="http://www.w3.org/1999/xlink" x="0px" y="0px" width="100px"
	 height="100px" viewBox="0 0 100 100" enable-background="new 0 0 100 100" xml:space="preserve">
<g id="Layer_1">
	<g id="Default">
	</g>
	<path d="M73.105,20.98c4.781,0,9.276,1.862,12.656,5.242c6.979,6.979,6.979,18.334,0.002,25.313l-4.086,4.086L50,87.297
		L18.324,55.623l-4.086-4.088c-3.38-3.38-5.242-7.875-5.242-12.655s1.862-9.275,5.243-12.657c3.38-3.38,7.875-5.243,12.656-5.243
		c4.781,0,9.276,1.862,12.657,5.243l4.084,4.085L50,36.673l6.364-6.365l4.085-4.085C63.83,22.842,68.324,20.98,73.105,20.98
		 M73.105,11.98c-6.885,0-13.768,2.626-19.021,7.879L50,23.944l-4.084-4.085c-5.253-5.252-12.137-7.879-19.021-7.879
		c-6.884,0-13.768,2.626-19.02,7.879c-10.505,10.505-10.505,27.537,0,38.04l4.084,4.086L50,100.025l38.041-38.041l4.086-4.085
		c10.504-10.504,10.504-27.536,0-38.041C86.875,14.606,79.988,11.98,73.105,11.98L73.105,11.98z"/>
</g>
<g id="Default_1_">
</g>
</svg>
