<?xml version="1.0" encoding="utf-8"?>
<!-- Generator: Adobe Illustrator 16.0.0, SVG Export Plug-In . SVG Version: 6.00 Build 0)  -->
<!DOCTYPE svg PUBLIC "-//W3C//DTD SVG 1.1//EN" "http://www.w3.org/Graphics/SVG/1.1/DTD/svg11.dtd">
<svg version="1.1" id="Layer_1" xmlns="http://www.w3.org/2000/svg" xmlns:xlink="http://www.w3.org/1999/xlink" x="0px" y="0px"
	 width="100px" height="100px" viewBox="0 0 100 100" enable-background="new 0 0 100 100" xml:space="preserve">
<g id="Layer_1_1_">
	<g id="Default">
	</g>
	<path fill="#FFFFFF" d="M50,0C22.386,0,0,22.385,0,50c0,27.613,22.386,50,50,50c27.613,0,50-22.387,50-50C100,22.385,77.613,0,50,0
		z M82.551,76.502C77.963,68.938,70.816,63.1,62.309,60.188c6.131-4.017,10.184-10.94,10.184-18.816
		c0-12.42-10.069-22.488-22.49-22.488s-22.49,10.068-22.49,22.488c0,7.876,4.053,14.802,10.182,18.816
		c-8.509,2.912-15.656,8.75-20.241,16.315C11.549,69.27,8.002,60.04,8.002,49.997C8.002,26.839,26.842,8,50.001,8
		C73.159,8.001,92,26.842,92,50C92,60.041,88.452,69.27,82.551,76.502z"/>
</g>
<g id="Default_1_">
</g>
</svg>
