<?xml version="1.0" encoding="utf-8"?>
<!-- Generator: Adobe Illustrator 16.0.0, SVG Export Plug-In . SVG Version: 6.00 Build 0)  -->
<!DOCTYPE svg PUBLIC "-//W3C//DTD SVG 1.1//EN" "http://www.w3.org/Graphics/SVG/1.1/DTD/svg11.dtd">
<svg version="1.1" xmlns="http://www.w3.org/2000/svg" xmlns:xlink="http://www.w3.org/1999/xlink" x="0px" y="0px" width="100px"
	 height="100px" viewBox="0 0 100 100" enable-background="new 0 0 100 100" xml:space="preserve">
<g id="Layer_1">
	<g id="Default">
	</g>
	<path d="M50,0C22.386,0,0,22.385,0,50c0,27.613,22.386,50,50,50s50-22.387,50-50C100,22.385,77.614,0,50,0z M82.551,76.502
		C77.963,68.938,70.816,63.1,62.309,60.188c6.13-4.017,10.183-10.941,10.183-18.817c0-12.42-10.069-22.488-22.49-22.488
		S27.512,28.951,27.512,41.371c0,7.876,4.053,14.802,10.182,18.817c-8.509,2.911-15.656,8.749-20.241,16.315
		c-5.904-7.234-9.451-16.463-9.451-26.506c0-23.158,18.84-41.997,41.999-41.997C73.159,8.001,92,26.842,92,50
		C92,60.041,88.452,69.27,82.551,76.502z"/>
</g>
<g id="Default_1_">
</g>
</svg>
